<svg width="267" height="57" fill="none" xmlns="http://www.w3.org/2000/svg"><g clip-path="url(#a)" fill="#fff"><path fill-rule="evenodd" clip-rule="evenodd" d="M.2 53.98 25.1.91a.67.67 0 0 1 .63-.42h53.21a.69.69 0 0 1 .69.68V26a.7.7 0 0 1-.45.65L1.05 54.9a.69.69 0 0 1-.92-.53.68.68 0 0 1 .06-.4Zm27.3-49.2h1.24V1.9h1.1v6.8h-1.1V5.73H27.5v2.95h-1.1V1.9h1.1v2.9Zm45.72-2.95h1.08v6.86h-1.08V1.83Zm-42.7 6.86 1.1-6.8h1.58l1.1 6.8h-1.09l-.18-1.24H31.7l-.2 1.25h-1Zm1.9-5.62-.53 3.46h.99l-.47-3.46Zm8.2 3.11.4-1.5.87-2.78h1.19v6.8h-1V3.87l-.43 1.67-.9 3.14h-1.12V1.9h1v4.3Zm17.63-3.3-.12 4.08c-.04 1.26-.5 1.74-1.57 1.8h-.17v-1c.5 0 .67-.06.67-.7l.17-5.16h3.06v6.8h-1.1V2.87h-.94Zm14.37 3.2V7c0 1.1-.53 1.7-1.6 1.7h-1.59V1.9h1.08v2.49h.5a1.48 1.48 0 0 1 1.56 1.02c.07.22.09.44.05.66Zm-1.6-.68h-.5v2.28h.5c.36 0 .54-.16.54-.65v-.99c0-.49-.18-.64-.53-.64Zm-6.63.71V7h-.02c0 1.1-.52 1.7-1.58 1.7h-1.6V1.9h1.08v2.53h.52c1.08 0 1.6.6 1.6 1.68Zm-1.6-.7h-.52v2.27h.52c.34 0 .52-.16.52-.65v-.99c0-.49-.18-.64-.52-.64Zm4.67.35h-1.22l-.03 2.93h-1.08V1.9h1.08v2.96h1.22V1.9h1.1v6.8h-1.07V5.76ZM37.3 1.82h1.11v5.92h.48V9.6h-1.05v-.92H35V1.9h1.08v5.79h1.22V1.82Zm18.55 6.83h-1.1l-.2-1.2h-1.32l-.19 1.24h-.99l1.1-6.8h1.59l1.1 6.76ZM53.9 3.03l-.52 3.46h1.04l-.52-3.46ZM78.13 1.9v.9l-1.86.08v1.87h1.48v.99h-1.48v1.97h1.86v.98h-2.97V1.9h2.97Zm-33.36-.07c.22-.08.45-.1.68-.09l.04.04a1.53 1.53 0 0 1 1.54 1.05c.07.22.09.44.06.66v3.52a1.63 1.63 0 0 1-1.64 1.63 1.65 1.65 0 0 1-1.65-1.63V3.45a1.5 1.5 0 0 1 .97-1.62Zm.68 5.93c.34 0 .55-.19.55-.68V3.43c0-.49-.2-.67-.55-.67-.35 0-.57.18-.57.67v3.65c0 .5.22.68.57.68Zm4.74-2.04h-1.22l.05 2.97h-1.09V1.9h1.1v2.96h1.2V1.9h1.07v6.77h-1.11V5.72Zm13.94 4.3V11l-1.87.04v1.93h1.49v.98h-1.49v1.97h1.87v.99h-2.98V10h2.98Zm4.4 6.89h-1.16l-1-2.73-.33.62v2.16h-1.08v-6.9h1.08v2.96l1.41-2.96h1.08l-1.5 3.06 1.5 3.79ZM71.25 11v5.9h-1.08V11h-1.13v-1h3.34v1h-1.13Zm5.02 3.33v.88h.05c0 1.1-.54 1.7-1.67 1.75h-1.58v-6.9h1.08v2.57h.5c1.08 0 1.62.6 1.62 1.7Zm-1.62-.72h-.5v2.27h.5c.35 0 .54-.16.54-.64v-.98c0-.5-.19-.65-.54-.65Zm-18.22-1.86v.87l.05.02c0 1.08-.54 1.7-1.61 1.7h-.51v2.62h-1.09v-6.9h1.55a1.49 1.49 0 0 1 1.56 1.02c.07.22.08.44.05.67Zm-1.61-.73h-.51v2.27h.5c.35 0 .54-.15.54-.64v-.98c0-.5-.19-.65-.53-.65Zm-4.79 5.9h-1.08l.05-6.89h3.36v6.9h-1.1v-5.91h-1.23v5.9Zm27.94 0h-1.09v-6.89h1.1v6.9Zm-19.9-6.77c.21-.09.43-.13.66-.12l.05-.05a1.53 1.53 0 0 1 1.6 1.08c.07.22.08.46.04.69v3.55a1.63 1.63 0 0 1-.98 1.63 1.65 1.65 0 0 1-2.21-.97 1.6 1.6 0 0 1-.09-.66v-3.55a1.5 1.5 0 0 1 .94-1.6Zm.66 5.9c.34 0 .56-.19.56-.67v-3.74c0-.5-.23-.68-.56-.68-.34 0-.56.19-.56.68v3.74c0 .48.21.67.56.67Zm16.83 6.53.33-1.44.93-2.9h1.2v6.9h-1v-4.82L76.6 22l-.92 3.14h-1.1v-6.9h.99v4.34Zm-16.27-4.3c.22-.07.45-.1.68-.08a1.53 1.53 0 0 1 1.58 1.04c.07.22.1.44.06.67v3.56a1.63 1.63 0 0 1-1.64 1.63 1.65 1.65 0 0 1-1.65-1.63V19.9a1.5 1.5 0 0 1 .97-1.62Zm.68 5.96c.34 0 .56-.18.56-.68v-3.72c0-.48-.22-.67-.56-.67-.35 0-.57.19-.57.67v3.72c0 .5.22.68.57.68Zm-5.51-5.97h1.6c1.07 0 1.58.6 1.6 1.73v.89c0 1.1-.53 1.69-1.6 1.69h-.52v2.58h-1.08v-6.9Zm1.6 3.3c.34 0 .53-.16.53-.66V19.9c0-.48-.19-.64-.54-.64h-.51v2.31h.51Zm7.24-3.28c.21-.08.44-.11.67-.1a1.51 1.51 0 0 1 1.57 1.07c.07.22.08.45.04.68v.67h-.99v-.77c0-.48-.22-.67-.56-.67-.35 0-.57.19-.57.67v3.72c0 .5.22.67.57.67.34 0 .56-.17.56-.67v-.98h1v.89a1.6 1.6 0 0 1-1.62 1.6 1.62 1.62 0 0 1-1.62-1.6V19.9a1.49 1.49 0 0 1 .95-1.62Zm3.02 1.62c0-1.1.55-1.71 1.6-1.71 1.07 0 1.6.62 1.6 1.74v.67h-.99v-.77c0-.48-.21-.67-.56-.67-.35 0-.56.19-.56.67v3.72c0 .5.21.67.56.67.35 0 .56-.17.56-.67v-.98h1v.89c0 1.08-.54 1.72-1.6 1.72s-1.6-.63-1.6-1.72V19.9Zm1.6-1.71Zm3.36 4.4.4-1.5.86-2.83h1.2v6.89h-1v-4.82l-.44 1.68-.9 3.14h-1.11v-6.9h.99v4.34Z"/><path d="M96.37 2.14H91.4v2.6h2.21c.71-.02 1.41.12 2.06.4a2.9 2.9 0 0 1 1.34 1.15c.32.52.48 1.12.47 1.72a3.08 3.08 0 0 1-1 2.42 4.1 4.1 0 0 1-2.79.92h-4.17V.64h6.84v1.5Zm-4.96 4.1v3.63h2.2a2 2 0 0 0 1.48-.52A1.76 1.76 0 0 0 95.6 8a1.62 1.62 0 0 0-.51-1.28c-.4-.33-.91-.5-1.44-.49H91.4Zm13.99.33h-4.43v3.3h5.2v1.48h-7.04V.64h7v1.5H101v2.95h4.43l-.03 1.48Zm7.7-3.02a1.36 1.36 0 0 0-.54-1.14c-.43-.3-.96-.46-1.49-.43-.48-.02-.96.13-1.34.42a1.33 1.33 0 0 0-.55 1.1h-1.86c-.03-.57.12-1.13.44-1.6.36-.44.84-.78 1.38-.99a5.27 5.27 0 0 1 4.79.43 2.68 2.68 0 0 1 .99 2.24c0 .49-.16.96-.45 1.34-.32.44-.75.78-1.25.99.55.16 1.03.49 1.39.93.33.46.5 1 .47 1.57a2.75 2.75 0 0 1-1.1 2.3c-.87.6-1.92.9-2.98.84a5.03 5.03 0 0 1-2.06-.4 2.86 2.86 0 0 1-1.84-2.7h1.85a1.45 1.45 0 0 0 .59 1.15c.41.33.93.5 1.46.48.58.03 1.14-.14 1.6-.47a1.46 1.46 0 0 0 .6-1.2 1.53 1.53 0 0 0-.53-1.31c-.45-.33-1-.5-1.55-.47h-1.26V5.16h1.26c1.27 0 1.98-.54 1.98-1.6Zm12.34 2.72a6.6 6.6 0 0 1-.55 2.77 4.17 4.17 0 0 1-1.56 1.82 4.6 4.6 0 0 1-4.69 0 4.19 4.19 0 0 1-1.58-1.81 6.53 6.53 0 0 1-.57-2.72v-.6c-.02-.95.17-1.9.56-2.77.33-.75.88-1.4 1.58-1.84a4.63 4.63 0 0 1 4.67 0 4 4 0 0 1 1.57 1.81c.39.87.58 1.8.57 2.75v.6Zm-1.88-.56a4.7 4.7 0 0 0-.67-2.73 2.23 2.23 0 0 0-1.93-.98 2.22 2.22 0 0 0-1.9.98c-.5.8-.74 1.73-.7 2.67v.62c-.06.96.19 1.92.7 2.74a2.23 2.23 0 0 0 1.92.98 2.2 2.2 0 0 0 1.91-.93c.5-.83.74-1.8.67-2.76v-.59Zm12.27 5.64h-1.87V2.14h-4.74v9.21h-1.86V.64h8.47v10.71Zm8.3-2.49h-4.18l-.88 2.5h-1.98L141.16.63h1.69l4.08 10.71h-1.98l-.82-2.49Zm-3.66-1.5h3.13l-1.56-4.48-1.57 4.47Zm15.93.51a3.84 3.84 0 0 1-1.27 2.67 4.36 4.36 0 0 1-2.97.98 4.2 4.2 0 0 1-2.27-.61 3.95 3.95 0 0 1-1.51-1.72 6.12 6.12 0 0 1-.56-2.6V5.6a6.3 6.3 0 0 1 .53-2.67 4.2 4.2 0 0 1 1.56-1.78c.7-.42 1.52-.64 2.34-.62 1.05-.04 2.07.3 2.87.99a4.01 4.01 0 0 1 1.27 2.71h-1.87a2.62 2.62 0 0 0-.68-1.66 2.23 2.23 0 0 0-1.6-.51 2.2 2.2 0 0 0-1.87.88c-.49.78-.72 1.7-.67 2.61v.99c-.06.93.16 1.85.63 2.66a2.07 2.07 0 0 0 1.83.9c.6.05 1.18-.13 1.65-.49.43-.44.68-1.02.7-1.63l1.9-.11Zm10.24 3.48h-1.87V6.6h-4.82v4.75h-1.87V.64h1.87V5.1h4.82V.64h1.87v10.71Zm4.13-6.61h2.2c.72-.02 1.43.12 2.08.4a2.97 2.97 0 0 1 1.8 2.87 3.07 3.07 0 0 1-1 2.42 4.1 4.1 0 0 1-2.8.92h-4.12V.64h1.87l-.03 4.1Zm0 1.5v3.63h2.2a2.05 2.05 0 0 0 1.48-.52 1.79 1.79 0 0 0 .53-1.35 1.61 1.61 0 0 0-.52-1.28c-.4-.33-.9-.5-1.43-.49h-2.26Zm9 5.11h-1.86V.64h1.86v10.71Zm8.61-4.78h-4.43v3.3h5.18v1.48h-7.05V.64h7v1.5h-5.13v2.95h4.43v1.48ZM92.75 22.15h-1.28v4.58h-1.86v-10.7h1.86v4.5h1l3.16-4.5h2.3l-3.64 5.12 4.03 5.58h-2.26l-3.3-4.58Zm12.62 2.09h-4.15l-.87 2.5h-1.98l4.07-10.72h1.68l4.08 10.71h-1.98l-.85-2.49Zm-3.66-1.5h3.13l-1.56-4.44-1.57 4.44Zm14.17-6.72v10.71h-1.86v-4.21c-.82.2-1.66.31-2.51.3a4.42 4.42 0 0 1-2.92-.84 3.2 3.2 0 0 1-1-2.56v-3.4h1.87v3.4a1.95 1.95 0 0 0 .48 1.48c.45.33 1.02.48 1.58.43.84 0 1.69-.1 2.5-.32v-4.99h1.86Zm8.55 5.93h-4.4v3.3h5.18v1.48h-7.04v-10.7h6.99v1.49h-5.12v2.95h4.42l-.03 1.48Zm10.47 1.3a3.84 3.84 0 0 1-1.28 2.67 4.36 4.36 0 0 1-2.97.98c-.8.02-1.59-.2-2.27-.6a3.93 3.93 0 0 1-1.47-1.75 6.12 6.12 0 0 1-.55-2.6v-.99c-.02-.92.16-1.83.54-2.67a4.07 4.07 0 0 1 3.88-2.4c1.05-.05 2.08.3 2.88.98a4 4 0 0 1 1.24 2.68h-1.88a2.62 2.62 0 0 0-.67-1.67 2.28 2.28 0 0 0-1.6-.51 2.22 2.22 0 0 0-1.88.89 4.42 4.42 0 0 0-.66 2.6v.99c-.06.93.16 1.85.62 2.66a2.08 2.08 0 0 0 1.84.91c.6.05 1.18-.13 1.65-.5.43-.44.68-1.02.7-1.63l1.88-.04Zm9.48-5.73h-3.35v9.21h-1.87v-9.21h-3.28v-1.5h8.55l-.05 1.5Zm1.41 9.21V16.02h3.7c.98-.07 1.96.19 2.78.73a2.57 2.57 0 0 1 .99 2.17c0 .47-.13.93-.4 1.33-.29.4-.7.72-1.17.9a2.36 2.36 0 0 1 1.83 2.45 2.85 2.85 0 0 1-1 2.33c-.8.59-1.78.87-2.78.8h-3.95Zm1.87-6.2h1.83c.5.03.98-.1 1.37-.4a1.58 1.58 0 0 0 .35-1.74c-.08-.2-.2-.37-.35-.52a2.3 2.3 0 0 0-1.42-.35h-1.77v3.01Zm0 1.37v3.35h2.1c.49.03.98-.13 1.37-.44a1.72 1.72 0 0 0 .4-1.89 1.72 1.72 0 0 0-1.62-1.06l-2.25.04Zm13.98.05h-4.43v3.3h5.17v1.48h-7.04v-10.7h7v1.49h-5.13v2.95h4.43v1.48Zm11.39 4.78h-1.87v-4.75h-4.82v4.75h-1.87v-10.7h1.87v4.45h4.82v-4.46h1.87v10.71Zm10.51 0h-1.86v-4.75h-4.83v4.75h-1.87v-10.7h1.87v4.45h4.83v-4.46h1.86v10.71Zm3.85-6.61h2.2c.72-.02 1.42.12 2.07.4.55.24 1.02.64 1.35 1.15.3.52.47 1.12.45 1.73a3.07 3.07 0 0 1-.99 2.4 4.1 4.1 0 0 1-2.8.93h-4.11v-10.7h1.83v4.09Zm0 1.47v3.63h2.2a1.99 1.99 0 0 0 1.47-.51 1.77 1.77 0 0 0 .54-1.36 1.63 1.63 0 0 0-.53-1.27 2.1 2.1 0 0 0-1.4-.49h-2.28Zm9 5.12h-1.86V16.02h1.86v10.69Zm8.36-4.76h-4.43v3.3h5.18v1.48h-7.05v-10.7h7v1.49h-5.13v2.95h4.43v1.48Zm15.7 7.42h-1.77v-2.64h-7.1v2.64h-1.8l-.06-4.12h.86a4.3 4.3 0 0 0 .99-1.8c.27-.87.44-1.77.5-2.67l.28-4.76h6.8v9.23h1.36l-.06 4.12Zm-7.75-4.12h4.61v-7.73h-3.18l-.18 3.02a9.86 9.86 0 0 1-1.25 4.7Zm17.38-3.6c.02.95-.17 1.9-.56 2.77a4.05 4.05 0 0 1-3.86 2.46 4.19 4.19 0 0 1-3.92-2.45 6.23 6.23 0 0 1-.56-2.72v-.6a6.6 6.6 0 0 1 .55-2.77c.33-.75.88-1.39 1.57-1.84a4.65 4.65 0 0 1 4.68 0c.7.44 1.25 1.07 1.57 1.81.39.87.58 1.8.57 2.75l-.04.6Zm-1.87-.56a4.62 4.62 0 0 0-.69-2.73 2.38 2.38 0 0 0-2.97-.7c-.33.17-.62.41-.84.7-.5.8-.75 1.73-.7 2.67v.62c-.06.97.18 1.92.69 2.74a2.22 2.22 0 0 0 1.92.99 2.2 2.2 0 0 0 1.91-.99c.5-.83.74-1.8.68-2.76v-.54Zm5.12 1.67v3.94h-1.87V16.02h4.12a4.14 4.14 0 0 1 2.87.94 3.11 3.11 0 0 1 1.06 2.47 3.01 3.01 0 0 1-1.04 2.45 4.4 4.4 0 0 1-2.91.88h-2.23Zm0-1.5h2.25c.55.04 1.1-.13 1.52-.47a1.67 1.67 0 0 0 .54-1.35 1.85 1.85 0 0 0-.54-1.4 2.1 2.1 0 0 0-1.47-.52h-2.3v3.74Zm15.93.39a6.5 6.5 0 0 1-.54 2.77 4.17 4.17 0 0 1-1.56 1.82 4.6 4.6 0 0 1-4.69 0 4.18 4.18 0 0 1-1.59-1.81 6.53 6.53 0 0 1-.56-2.72v-.6c-.02-.95.17-1.9.56-2.77.32-.75.87-1.4 1.57-1.84a4.62 4.62 0 0 1 4.67 0 4.1 4.1 0 0 1 1.57 1.81c.4.87.59 1.8.56 2.75l.01.6Zm-1.87-.56a4.7 4.7 0 0 0-.67-2.73 2.23 2.23 0 0 0-1.92-.98 2.22 2.22 0 0 0-1.9.98c-.5.8-.75 1.73-.7 2.67v.62a4.7 4.7 0 0 0 .69 2.74 2.22 2.22 0 0 0 1.92.99 2.2 2.2 0 0 0 1.9-.99c.51-.83.74-1.8.68-2.76v-.54Zm10.15-3.57h-4.96v9.21h-1.86v-10.7h6.84l-.02 1.49Zm7.67-1.5h1.87v10.71h-1.87V19.1l-4.72 7.63h-1.89v-10.7h1.89v7.63l4.72-7.64Z"/></g><defs><clipPath id="a"><path fill="#fff" transform="translate(0 .5)" d="M0 0h267v56H0z"/></clipPath></defs></svg>