<svg width="389" height="82" fill="none" xmlns="http://www.w3.org/2000/svg"><g clip-path="url(#a)"><path d="M36.57.6.27 78.32a1 1 0 0 0 1.26 1.36L115.36 38.3a1.02 1.02 0 0 0 .65-.96V.98a1 1 0 0 0-1-1H37.48a.98.98 0 0 0-.9.63Z" fill="#CEA84C"/><path d="M41.87 6.27h-1.8V2.05H38.5V12h1.59V7.67h1.79V12h1.6V2.05h-1.6v4.22Zm66.38-4.32h-1.58V12h1.58V1.95Zm-62.18.1L44.47 12h1.44l.27-1.82h1.94l.27 1.82h1.59l-1.6-9.95h-2.31Zm.39 6.78.76-5.07.68 5.07h-1.44Zm13.3-2.72-.58 2.21V2.05h-1.44V12h1.62l1.32-4.6.64-2.45V12h1.44V2.05h-1.73L59.76 6.1ZM84.7 9.46l.17-5.97h1.37V12h1.6V2.06h-4.46l-.24 7.57c0 .92-.26 1.02-.98 1.02v1.44h.24c1.57-.07 2.24-.77 2.3-2.62Zm21.1 0v-1.3a2.13 2.13 0 0 0-1.38-2.34c-.3-.12-.64-.16-.96-.12h-.73V2.05h-1.57V12h2.33c1.54 0 2.32-.87 2.32-2.48v-.06Zm-3.07-2.28h.75c.51 0 .78.22.78.94v1.44c0 .72-.27.95-.78.95h-.75V7.18Zm-8.91 2.34v-1.3c0-1.6-.77-2.47-2.34-2.47h-.75v-3.7h-1.57V12h2.32c1.54 0 2.3-.87 2.3-2.48h.04Zm-3.1-2.34h.76c.49 0 .76.22.76.94v1.44c0 .72-.27.95-.76.95h-.75V7.18Zm5.78.52h1.79v4.33h1.56V2.05h-1.6v4.32h-1.8V2.05h-1.57V12h1.58l.04-4.3ZM55.95 1.93h-1.62v8.58h-1.78V2.05h-1.58V12h4.14v1.34h1.53V10.6h-.69V1.93Zm23.81 10.01h1.59l-1.62-9.9h-2.3L75.82 12h1.43l.28-1.82h1.93l.3 1.76Zm-2-3.17.76-5.06.75 5.06h-1.51Zm36.07-5.4V2.04h-4.33V12h4.33v-1.44h-2.71V7.67h2.16V6.23h-2.16V3.49l2.71-.13ZM66.21 1.81a2.22 2.22 0 0 0-2.4 2.5v5.21a2.4 2.4 0 0 0 4.8 0V4.38a2.22 2.22 0 0 0-2.34-2.5l-.06-.06Zm.8 7.81c0 .72-.3 1-.8 1s-.82-.28-.82-1V4.28c0-.7.32-.98.82-.98.5 0 .8.28.8.98v5.35Zm4.34-1.99h1.77v4.33h1.62V2.05H73.2v4.32h-1.78V2.05h-1.59V12h1.59l-.07-4.36Zm22.08 7.73v-1.44H89.1v10.1h4.33v-1.45H90.7V19.7h2.17v-1.44H90.7v-2.83l2.72-.06Zm4.73 8.65h1.69l-2.2-5.55 2.2-4.47h-1.57l-2.07 4.33V14h-1.57v10.1h1.57v-3.16l.48-.91 1.47 4Zm5.64 0v-8.65h1.65v-1.44h-4.87v1.44h1.65v8.65h1.57Zm7.32-2.48v-1.3c0-1.6-.78-2.47-2.35-2.47h-.74V14h-1.57v10.1h2.3c1.65-.08 2.43-.96 2.43-2.56h-.07Zm-3.09-2.35h.74c.5 0 .78.23.78.96v1.44c0 .7-.28.93-.78.93h-.74V19.2Zm-25.82-1.44v-1.28A2.15 2.15 0 0 0 79.86 14h-2.25v10.1h1.59v-3.84h.73c1.58 0 2.36-.9 2.36-2.48l-.08-.03Zm-3.08-2.35h.73c.5 0 .78.23.78.95v1.44c0 .71-.27.94-.78.94h-.73V15.4Zm-7.81 8.65h1.57V15.4h1.8v8.65h1.6v-10.1h-4.9l-.07 10.1Zm40.7 0h1.58v-10.1h-1.59v10.1Zm-26.46-10.1a2.22 2.22 0 0 0-2.3 2.52v5.2a2.4 2.4 0 1 0 4.77 0v-5.2a2.22 2.22 0 0 0-2.4-2.58l-.07.07Zm.82 7.84c0 .7-.31.98-.82.98-.5 0-.8-.27-.8-.98V16.3c0-.72.31-1 .8-1 .5 0 .82.28.82 1v5.48Zm24.19 8.43-.49 2.11v-6.34h-1.44v10.09h1.61l1.33-4.6.64-2.45v7.05h1.44v-10.1h-1.73l-1.36 4.24Zm-23.2-4.3a2.22 2.22 0 0 0-2.4 2.5v5.2a2.4 2.4 0 0 0 4.8 0v-5.2a2.22 2.22 0 0 0-2.4-2.5Zm.82 7.85c0 .72-.32 1-.82 1-.5 0-.83-.28-.83-1v-5.45c0-.7.32-.98.83-.98.5 0 .82.27.82.98v5.45ZM81.67 26h-2.33v10.1h1.58v-3.78h.75c1.57 0 2.35-.87 2.35-2.48v-1.3c-.05-1.66-.78-2.54-2.35-2.54Zm.78 3.88c0 .72-.28.95-.78.95h-.75v-3.38h.75c.5 0 .78.23.78.93v1.5ZM93.2 25.9a2.2 2.2 0 0 0-2.36 2.51v5.2a2.35 2.35 0 0 0 4.7 0v-1.29H94.1v1.44c0 .72-.31.98-.82.98-.5 0-.82-.26-.82-.98v-5.45c0-.7.32-.98.82-.98.5 0 .83.27.83.98v1.13h1.44v-.98a2.2 2.2 0 0 0-2.35-2.56Zm5.77 0c-1.55 0-2.34.91-2.34 2.51v5.2c0 1.6.8 2.53 2.34 2.53 1.54 0 2.32-.94 2.32-2.52v-1.3h-1.44v1.44c0 .72-.32.98-.82.98-.5 0-.81-.26-.81-.98v-5.45c0-.7.3-.98.8-.98.51 0 .83.27.83.98v1.13h1.44v-.98c0-1.65-.78-2.56-2.34-2.56h.02Zm5.45 4.24-.57 2.2V26h-1.45v10.1h1.62l1.31-4.6.65-2.45v7.05h1.44V26h-1.73l-1.27 4.14Z" fill="#fff"/><path d="M140.4 2.4h-7.22v3.8h3.22a7.22 7.22 0 0 1 3 .6c.81.34 1.5.93 1.95 1.68.46.76.7 1.63.68 2.52a4.53 4.53 0 0 1-1.44 3.54 5.95 5.95 0 0 1-4.07 1.35h-6.08V.2h9.96v2.2Zm-7.22 6v5.31h3.2a2.89 2.89 0 0 0 2.16-.75 2.57 2.57 0 0 0 .76-1.97 2.37 2.37 0 0 0-.75-1.88 3.13 3.13 0 0 0-2.1-.72h-3.27Zm20.38.48h-6.45v4.83h7.57v2.18h-10.26V.2h10.2v2.2h-7.47v4.32h6.45l-.04 2.16Zm11.22-4.41A2 2 0 0 0 164 2.8a3.42 3.42 0 0 0-2.16-.64c-.7-.02-1.4.2-1.97.62a1.95 1.95 0 0 0-.79 1.6h-2.71a3.8 3.8 0 0 1 .63-2.33A4.77 4.77 0 0 1 159.01.6a7.65 7.65 0 0 1 6.97.62 3.94 3.94 0 0 1 1.45 3.28c0 .71-.23 1.4-.65 1.97a4.42 4.42 0 0 1-1.82 1.44c.8.24 1.5.72 2.02 1.37.48.66.72 1.47.7 2.29a4.05 4.05 0 0 1-1.63 3.36 6.97 6.97 0 0 1-4.32 1.24 7.3 7.3 0 0 1-3.02-.6 4.19 4.19 0 0 1-2.68-3.97h2.7a2.11 2.11 0 0 0 .86 1.71c.6.5 1.36.74 2.14.71.83.04 1.65-.2 2.32-.7a2.13 2.13 0 0 0 .88-1.75 2.25 2.25 0 0 0-.78-1.92 3.58 3.58 0 0 0-2.25-.69h-1.85V6.82h1.85c1.85 0 2.88-.8 2.88-2.35Zm17.97 3.98a9.61 9.61 0 0 1-.8 4.05 6.1 6.1 0 0 1-2.27 2.67 6.68 6.68 0 0 1-6.83 0 6.12 6.12 0 0 1-2.3-2.65 9.6 9.6 0 0 1-.83-3.98v-.88c-.03-1.4.25-2.78.8-4.05a6.17 6.17 0 0 1 2.32-2.7 6.72 6.72 0 0 1 6.8 0 5.86 5.86 0 0 1 2.29 2.65c.56 1.27.84 2.64.82 4.03v.86Zm-2.73-.82c.09-1.4-.25-2.8-.98-4a3.26 3.26 0 0 0-2.81-1.44 3.22 3.22 0 0 0-2.76 1.45 6.7 6.7 0 0 0-1.02 3.9v.91a6.8 6.8 0 0 0 1 4.01 3.25 3.25 0 0 0 2.8 1.44 3.2 3.2 0 0 0 2.8-1.37 6.98 6.98 0 0 0 .97-4.04v-.86Zm17.87 8.27h-2.71V2.4h-6.92v13.5h-2.7V.2h12.33v15.7Zm12.09-3.66h-6.09l-1.27 3.65h-2.88L205.67.2h2.45l5.94 15.7h-2.88l-1.2-3.66Zm-5.32-2.2h4.56l-2.28-6.55-2.28 6.55Zm23.22.75a5.63 5.63 0 0 1-1.87 3.9 6.34 6.34 0 0 1-4.32 1.45 6.12 6.12 0 0 1-3.31-.9 5.77 5.77 0 0 1-2.2-2.52 9.02 9.02 0 0 1-.82-3.8V7.46a9.26 9.26 0 0 1 .78-3.9 6.08 6.08 0 0 1 2.27-2.62 6.37 6.37 0 0 1 3.4-.9A6.06 6.06 0 0 1 226 1.48a5.9 5.9 0 0 1 1.85 3.98h-2.73a3.85 3.85 0 0 0-.98-2.44 3.23 3.23 0 0 0-2.32-.75 3.2 3.2 0 0 0-2.75 1.3 6.54 6.54 0 0 0-.96 3.82v1.44a6.93 6.93 0 0 0 .9 3.9 3.01 3.01 0 0 0 2.68 1.32c.86.07 1.72-.19 2.4-.72a3.7 3.7 0 0 0 1.03-2.4l2.75-.15Zm14.9 5.11h-2.73V8.92h-7v6.96h-2.74V.2h2.73v6.54h7.01V.2h2.73v15.7Zm6.02-9.7h3.22a7.22 7.22 0 0 1 3.01.6c.8.34 1.49.93 1.95 1.68.46.76.69 1.64.66 2.52a4.53 4.53 0 0 1-1.44 3.54 5.95 5.95 0 0 1-4.07 1.35h-6.01V.2h2.72l-.04 6Zm0 2.2v5.31h3.2a2.97 2.97 0 0 0 2.17-.75 2.63 2.63 0 0 0 .76-1.97 2.37 2.37 0 0 0-.75-1.88 3.14 3.14 0 0 0-2.1-.72h-3.28Zm13.12 7.5h-2.72V.2h2.72v15.7Zm12.54-7.02H268v4.83h7.54v2.18h-10.27V.2h10.2v2.2H268v4.32h6.45v2.16ZM135.13 31.7h-1.86v6.71h-2.71V22.73h2.71v6.59h1.44l4.62-6.6h3.35l-5.31 7.52 5.87 8.18h-3.29l-4.82-6.72Zm18.38 3.07h-6.04l-1.27 3.64h-2.89l5.93-15.68h2.46l5.94 15.68h-2.88l-1.25-3.64Zm-5.32-2.2h4.56l-2.28-6.51-2.28 6.5Zm20.64-9.84V38.4h-2.72v-6.17c-1.19.3-2.42.46-3.65.45a6.41 6.41 0 0 1-4.25-1.24 4.69 4.69 0 0 1-1.45-3.75v-4.97h2.72v4.99a2.88 2.88 0 0 0 .69 2.14c.66.49 1.49.71 2.3.64 1.24 0 2.47-.16 3.66-.46v-7.31h2.7Zm12.45 8.67h-6.4v4.84h7.54v2.17h-10.26V22.73h10.19v2.19h-7.46v4.32h6.45l-.06 2.17Zm15.25 1.91a5.63 5.63 0 0 1-1.86 3.9 6.34 6.34 0 0 1-4.33 1.45 6.12 6.12 0 0 1-3.3-.9 5.77 5.77 0 0 1-2.14-2.55 9.02 9.02 0 0 1-.8-3.8v-1.45a9.06 9.06 0 0 1 .79-3.92 5.95 5.95 0 0 1 2.25-2.6 6.37 6.37 0 0 1 3.4-.92 6.06 6.06 0 0 1 4.19 1.45 5.9 5.9 0 0 1 1.8 3.92h-2.72a3.85 3.85 0 0 0-.99-2.44 3.3 3.3 0 0 0-2.32-.75 3.22 3.22 0 0 0-2.74 1.3 6.53 6.53 0 0 0-.97 3.82v1.44a6.93 6.93 0 0 0 .91 3.9 3.03 3.03 0 0 0 2.67 1.34c.87.06 1.73-.2 2.41-.74a3.7 3.7 0 0 0 1.03-2.4l2.72-.05Zm13.83-8.39h-4.9v13.5h-2.7v-13.5h-4.78v-2.2h12.45l-.07 2.2Zm2.04 13.49V22.73h5.39a6.5 6.5 0 0 1 4.05 1.06 3.74 3.74 0 0 1 1.45 3.18 3.39 3.39 0 0 1-2.28 3.27c.78.19 1.48.65 1.96 1.3.47.67.71 1.47.7 2.29a4.17 4.17 0 0 1-1.45 3.4 6.12 6.12 0 0 1-4.06 1.18h-5.75Zm2.73-9.08h2.67c.71.05 1.42-.16 2-.58a2.34 2.34 0 0 0 0-3.31 3.33 3.33 0 0 0-2.07-.52h-2.58l-.02 4.41Zm0 2v4.9h3.05c.72.05 1.44-.18 2-.63a2.51 2.51 0 0 0-1.77-4.32l-3.28.05Zm20.37.07h-6.46v4.84h7.54v2.17h-10.26V22.73h10.19v2.19h-7.47v4.32h6.46v2.17Zm16.59 7.01h-2.73v-6.96h-7.01v6.96h-2.73V22.73h2.73v6.53h7.01v-6.53h2.73V38.4Zm15.31 0h-2.71v-6.96h-7.03v6.96h-2.73V22.73h2.73v6.53h7.03v-6.53h2.71V38.4Zm5.61-9.68h3.22a7.22 7.22 0 0 1 3 .59 4.34 4.34 0 0 1 2.63 4.21 4.5 4.5 0 0 1-1.44 3.53 5.95 5.95 0 0 1-4.07 1.35h-6V22.73H273v6Zm0 2.16v5.3h3.2a2.88 2.88 0 0 0 2.16-.75 2.6 2.6 0 0 0 .78-1.99 2.4 2.4 0 0 0-.77-1.86 3.05 3.05 0 0 0-2.05-.7h-3.32Zm13.12 7.48h-2.71V22.73h2.71v15.64Zm12.18-6.97h-6.45v4.84h7.53v2.17h-10.26V22.73h10.19v2.19h-7.46v4.32h6.45v2.17Zm22.87 10.88h-2.58v-3.87h-10.35v3.87h-2.62l-.09-6.04h1.25a6.23 6.23 0 0 0 1.45-2.64c.4-1.27.64-2.58.72-3.9l.42-6.97h9.9v13.5h1.99l-.09 6.05Zm-11.3-6.04h6.73V24.92h-4.63l-.26 4.43a14.51 14.51 0 0 1-1.84 6.89Zm25.32-5.27a9.6 9.6 0 0 1-.8 4.06 5.93 5.93 0 0 1-2.22 2.66 6.2 6.2 0 0 1-3.4.94 6.11 6.11 0 0 1-5.72-3.6 9.17 9.17 0 0 1-.82-3.97v-.88a9.7 9.7 0 0 1 .8-4.05 6.24 6.24 0 0 1 2.3-2.7 6.74 6.74 0 0 1 6.8 0 5.93 5.93 0 0 1 2.3 2.66 9.6 9.6 0 0 1 .83 4.02l-.06.86Zm-2.72-.82a6.8 6.8 0 0 0-1-4 3.49 3.49 0 0 0-5.55 0 6.6 6.6 0 0 0-1.03 3.92v.9a6.8 6.8 0 0 0 1.02 4.01 3.24 3.24 0 0 0 2.8 1.44 3.2 3.2 0 0 0 2.78-1.44 6.97 6.97 0 0 0 .98-4.03v-.8Zm7.46 2.44v5.77h-2.73V22.73h6c1.53-.1 3.02.4 4.2 1.37a4.57 4.57 0 0 1 1.54 3.62 4.45 4.45 0 0 1-1.52 3.59 6.32 6.32 0 0 1-4.24 1.28h-3.25Zm0-2.2h3.28c.8.07 1.6-.18 2.22-.68a2.47 2.47 0 0 0 .78-1.98 2.72 2.72 0 0 0-.78-2.03 3 3 0 0 0-2.14-.78h-3.36v5.48Zm23.22.58a9.6 9.6 0 0 1-.8 4.06 6.1 6.1 0 0 1-2.27 2.66 6.69 6.69 0 0 1-6.83 0 6.12 6.12 0 0 1-2.3-2.65 9.58 9.58 0 0 1-.83-3.98v-.88c-.03-1.4.24-2.78.8-4.05a6.04 6.04 0 0 1 2.3-2.7 6.71 6.71 0 0 1 6.8 0 5.92 5.92 0 0 1 2.3 2.66c.57 1.26.85 2.63.82 4.02l.01.86Zm-2.73-.82c.09-1.4-.25-2.8-.98-4a3.25 3.25 0 0 0-2.8-1.43 3.22 3.22 0 0 0-2.77 1.44 6.7 6.7 0 0 0-1.02 3.9v.91a6.96 6.96 0 0 0 1 4.01 3.25 3.25 0 0 0 2.8 1.44 3.2 3.2 0 0 0 2.8-1.44 6.98 6.98 0 0 0 .97-4.03v-.8Zm14.78-5.23H368v13.5h-2.72v-15.7h9.96l-.03 2.2Zm11.19-2.19h2.72V38.4h-2.73V27.24l-6.88 11.18h-2.74v-15.7h2.74v11.2l6.88-11.2Z" fill="#CEA84C"/></g><defs><clipPath id="a"><path fill="#fff" d="M0 0h389v82H0z"/></clipPath></defs></svg>